#N canvas 82 23 1634 1000 10;
#X obj 234 153 soundfile_info;
#X msg 234 131 read \$1;
#X obj 234 107 openpanel;
#X obj 234 85 bng 15 250 50 0 empty empty empty 17 7 0 10 -262144 -1
-1;
#X obj 234 176 unpack f symbol f;
#X floatatom 333 200 10 0 0 0 - - -;
#X text 400 200 Sample Length;
#X floatatom 333 221 10 0 0 0 - - -;
#X text 401 221 Sample Rate;
#X floatatom 332 268 10 0 0 0 - - -;
#X obj 332 245 /;
#X text 401 267 Sample Length (seconds);
#X obj 241 213 bng 15 250 50 0 empty empty empty 17 7 0 10 -262144
-1 -1;
#X floatatom 332 295 10 0 0 0 - - -;
#X text 401 297 Target Duration;
#X obj 332 320 /;
#X floatatom 332 347 10 0 0 0 - - -;
#X text 399 346 Playback Rate;
#X obj 271 280 bng 15 250 50 0 empty empty empty 17 7 0 10 -262144
-1 -1;
#N canvas 0 23 450 278 (subpatch) 0;
#X array 1channelL 1.02989e+06 float 4;
#X coords 0 1 1.02989e+06 -1 200 140 1 0 0;
#X restore 584 30 graph;
#X obj 14 155 soundfiler;
#X floatatom 31 184 10 0 0 0 - - -;
#X obj 14 233 expr 44100 / $f1;
#N canvas 0 22 450 278 (subpatch) 0;
#X array 1channelR 1.02989e+06 float 4;
#X coords 0 1 1.02989e+06 -1 200 140 1 0 0;
#X restore 583 188 graph;
#X floatatom 41 365 5 0 0 0 - - -;
#X obj 14 388 phasor~;
#X obj 14 442 *~;
#X obj 219 604 vsl 30 40 0 1 0 0 empty empty empty 0 -9 0 10 -262144
-1 -1 3900 1;
#X obj 14 747 *~;
#X obj 91 747 *~;
#X obj 14 783 dac~ 1 2;
#X obj 127 462 snapshot~;
#X obj 127 435 metro 50;
#X obj 127 409 tgl 15 0 empty empty empty 17 7 0 10 -262144 -1 -1 1
1;
#X floatatom 109 486 10 0 0 0 - - -;
#X obj 158 509 /;
#X floatatom 151 542 5 0 0 0 - - -;
#X obj 586 354 hsl 195 15 0 1 0 0 empty empty empty -2 -8 0 10 -262144
-1 -1 5475 1;
#X obj 129 340 hsl 128 15 -1 10 0 0 empty empty empty -2 -8 0 10 -262144
-1 -1 1155 1;
#X floatatom 126 366 5 0 0 0 - - -;
#X obj 96 167 bng 15 250 50 0 empty empty empty 17 7 0 10 -262144 -1
-1;
#X floatatom 125 234 5 0 0 0 - - -;
#X obj 131 187 /;
#X obj 495 425 dumpOSC 13005;
#X floatatom 495 485 5 0 0 0 - - -;
#X obj 495 454 OSCroute /collision /nocollision;
#X obj 495 544 metro 50;
#X obj 495 572 random 30;
#X floatatom 495 601 5 0 0 0 - - -;
#X obj 495 512 sel 1 0;
#X obj 505 631 -;
#X floatatom 505 659 5 0 0 0 - - -;
#X msg 552 544 0;
#X floatatom 543 601 5 0 0 0 - - -;
#X obj 505 684 s granuleMove;
#X obj 126 271 +;
#X floatatom 163 233 5 0 0 0 - - -;
#X floatatom 128 303 5 0 0 0 - - -;
#X msg 464 545 4;
#X msg 583 544 2;
#X msg 373 49 0;
#X msg 410 48 8;
#X msg 13 129 read -resize \$1 1channelL 1channelR;
#X obj 132 159 r 1playbackSpeed;
#X obj 191 487 r 1sampleSize;
#X obj 31 208 s 1sampleSize;
#X obj 29 415 r 1sampleSize;
#X obj 14 591 tabread4~ 1channelL;
#X obj 91 612 tabread4~ 1channelR;
#X obj 156 196 r granuleMove;
#X obj 332 372 s 1playbackSpeed;
#X obj 1028 163 soundfile_info;
#X msg 1028 141 read \$1;
#X obj 1028 117 openpanel;
#X obj 1028 95 bng 15 250 50 0 empty empty empty 17 7 0 10 -262144
-1 -1;
#X obj 1028 186 unpack f symbol f;
#X floatatom 1127 210 10 0 0 0 - - -;
#X text 1194 210 Sample Length;
#X floatatom 1127 231 10 0 0 0 - - -;
#X text 1195 231 Sample Rate;
#X floatatom 1126 278 10 0 0 0 - - -;
#X obj 1126 255 /;
#X text 1195 277 Sample Length (seconds);
#X obj 1035 223 bng 15 250 50 0 empty empty empty 17 7 0 10 -262144
-1 -1;
#X floatatom 1126 305 10 0 0 0 - - -;
#X text 1195 307 Target Duration;
#X obj 1126 330 /;
#X floatatom 1126 357 10 0 0 0 - - -;
#X text 1193 356 Playback Rate;
#X obj 1065 290 bng 15 250 50 0 empty empty empty 17 7 0 10 -262144
-1 -1;
#N canvas 0 23 450 278 (subpatch) 0;
#X array 2channelL 65780 float 4;
#X coords 0 1 65779 -1 200 140 1 0 0;
#X restore 1378 40 graph;
#X obj 808 165 soundfiler;
#X floatatom 825 194 10 0 0 0 - - -;
#X obj 808 243 expr 44100 / $f1;
#N canvas 0 22 450 278 (subpatch) 0;
#X array 2channelR 65780 float 4;
#X coords 0 1 65779 -1 200 140 1 0 0;
#X restore 1377 198 graph;
#X floatatom 835 375 5 0 0 0 - - -;
#X obj 808 398 phasor~;
#X obj 808 452 *~;
#X obj 1029 625 vsl 30 40 0 1 0 0 empty empty empty 0 -9 0 10 -262144
-1 -1 3900 1;
#X obj 807 730 *~;
#X obj 884 730 *~;
#X obj 807 766 dac~ 1 2;
#X obj 921 472 snapshot~;
#X obj 921 445 metro 50;
#X obj 921 419 tgl 15 0 empty empty empty 17 7 0 10 -262144 -1 -1 1
1;
#X floatatom 903 496 10 0 0 0 - - -;
#X obj 952 519 /;
#X floatatom 945 552 5 0 0 0 - - -;
#X obj 1380 364 hsl 195 15 0 1 0 0 empty empty empty -2 -8 0 10 -262144
-1 -1 18899 1;
#X obj 923 350 hsl 128 15 -1 10 0 0 empty empty empty -2 -8 0 10 -262144
-1 -1 1155 1;
#X floatatom 920 376 5 0 0 0 - - -;
#X obj 890 177 bng 15 250 50 0 empty empty empty 17 7 0 10 -262144
-1 -1;
#X floatatom 919 244 5 0 0 0 - - -;
#X obj 925 197 /;
#X floatatom 1289 495 5 0 0 0 - - -;
#X obj 1289 464 OSCroute /collision /nocollision;
#X obj 1289 554 metro 50;
#X obj 1289 582 random 30;
#X floatatom 1289 611 5 0 0 0 - - -;
#X obj 1289 522 sel 1 0;
#X obj 1299 641 -;
#X floatatom 1299 669 5 0 0 0 - - -;
#X msg 1346 554 0;
#X floatatom 1337 611 5 0 0 0 - - -;
#X obj 1299 694 s granuleMove;
#X obj 920 281 +;
#X floatatom 957 243 5 0 0 0 - - -;
#X floatatom 922 313 5 0 0 0 - - -;
#X msg 1258 555 4;
#X msg 1377 554 2;
#X msg 1167 57 0;
#X msg 1204 58 8;
#X obj 950 206 r granuleMove;
#X obj 373 77 s offButton;
#X obj 1167 87 s offButton;
#X msg 808 139 read -resize \$1 2channelL 2channelR;
#X obj 926 169 r 2playbackSpeed;
#X obj 1012 253 r offButton;
#X obj 1126 382 s 2playbackSpeed;
#X obj 985 497 r 2sampleSize;
#X obj 885 622 tabread4~ 2channelR;
#X obj 808 601 tabread4~ 2channelL;
#X obj 823 425 r 2sampleSize;
#X obj 1289 435 dumpOSC 13006;
#X obj 825 218 s 2sampleSize;
#X obj 217 249 r offButton;
#X obj 16 691 *~;
#X obj 86 689 *~;
#X obj 259 702 *~;
#X obj 259 662 osc~ \$1;
#X floatatom 295 684 5 0 0 0 - - -;
#X floatatom 259 633 5 0 0 0 - - -;
#X msg 259 606 0;
#X obj 1070 706 *~;
#X obj 1070 666 osc~ \$1;
#X floatatom 1106 688 5 0 0 0 - - -;
#X floatatom 1070 637 5 0 0 0 - - -;
#X msg 1070 610 0;
#X obj 806 675 *~;
#X obj 883 679 *~;
#X connect 0 0 4 0;
#X connect 1 0 0 0;
#X connect 2 0 1 0;
#X connect 2 0 62 0;
#X connect 3 0 2 0;
#X connect 4 0 7 0;
#X connect 4 2 5 0;
#X connect 4 2 12 0;
#X connect 5 0 10 0;
#X connect 7 0 10 1;
#X connect 9 0 15 1;
#X connect 10 0 9 0;
#X connect 10 0 18 0;
#X connect 12 0 5 0;
#X connect 13 0 15 0;
#X connect 15 0 16 0;
#X connect 16 0 70 0;
#X connect 18 0 13 0;
#X connect 20 0 21 0;
#X connect 20 0 22 0;
#X connect 21 0 65 0;
#X connect 22 0 24 0;
#X connect 22 0 25 0;
#X connect 24 0 42 0;
#X connect 25 0 26 0;
#X connect 26 0 31 0;
#X connect 26 0 67 0;
#X connect 26 0 68 0;
#X connect 27 0 29 1;
#X connect 27 0 28 1;
#X connect 28 0 30 0;
#X connect 29 0 30 1;
#X connect 31 0 34 0;
#X connect 32 0 31 0;
#X connect 32 0 21 0;
#X connect 32 0 16 0;
#X connect 32 0 40 0;
#X connect 33 0 32 0;
#X connect 34 0 35 0;
#X connect 35 0 36 0;
#X connect 36 0 37 0;
#X connect 38 0 39 0;
#X connect 39 0 25 0;
#X connect 40 0 42 0;
#X connect 41 0 55 0;
#X connect 42 0 41 0;
#X connect 43 0 45 0;
#X connect 44 0 49 0;
#X connect 44 0 58 0;
#X connect 45 0 44 0;
#X connect 45 0 59 0;
#X connect 45 1 44 0;
#X connect 45 1 52 0;
#X connect 46 0 47 0;
#X connect 47 0 48 0;
#X connect 48 0 50 0;
#X connect 49 0 46 0;
#X connect 50 0 51 0;
#X connect 51 0 54 0;
#X connect 52 0 47 1;
#X connect 52 0 53 0;
#X connect 53 0 50 1;
#X connect 55 0 57 0;
#X connect 56 0 55 1;
#X connect 57 0 38 0;
#X connect 58 0 47 1;
#X connect 59 0 53 0;
#X connect 60 0 133 0;
#X connect 61 0 133 0;
#X connect 62 0 20 0;
#X connect 63 0 42 1;
#X connect 64 0 35 1;
#X connect 66 0 26 1;
#X connect 67 0 146 0;
#X connect 68 0 147 0;
#X connect 69 0 56 0;
#X connect 71 0 75 0;
#X connect 72 0 71 0;
#X connect 73 0 72 0;
#X connect 73 0 135 0;
#X connect 74 0 73 0;
#X connect 75 0 78 0;
#X connect 75 2 76 0;
#X connect 75 2 83 0;
#X connect 76 0 81 0;
#X connect 78 0 81 1;
#X connect 80 0 86 1;
#X connect 81 0 80 0;
#X connect 81 0 89 0;
#X connect 83 0 76 0;
#X connect 84 0 86 0;
#X connect 86 0 87 0;
#X connect 87 0 138 0;
#X connect 89 0 84 0;
#X connect 91 0 92 0;
#X connect 91 0 93 0;
#X connect 92 0 144 0;
#X connect 93 0 95 0;
#X connect 93 0 96 0;
#X connect 95 0 113 0;
#X connect 96 0 97 0;
#X connect 97 0 102 0;
#X connect 97 0 140 0;
#X connect 97 0 141 0;
#X connect 98 0 100 1;
#X connect 98 0 99 1;
#X connect 99 0 101 0;
#X connect 100 0 101 1;
#X connect 102 0 105 0;
#X connect 103 0 102 0;
#X connect 103 0 92 0;
#X connect 103 0 87 0;
#X connect 103 0 111 0;
#X connect 104 0 103 0;
#X connect 105 0 106 0;
#X connect 106 0 107 0;
#X connect 107 0 108 0;
#X connect 109 0 110 0;
#X connect 110 0 96 0;
#X connect 111 0 113 0;
#X connect 112 0 125 0;
#X connect 113 0 112 0;
#X connect 114 0 119 0;
#X connect 114 0 128 0;
#X connect 115 0 114 0;
#X connect 115 0 129 0;
#X connect 115 1 114 0;
#X connect 115 1 122 0;
#X connect 116 0 117 0;
#X connect 117 0 118 0;
#X connect 118 0 120 0;
#X connect 119 0 116 0;
#X connect 120 0 121 0;
#X connect 121 0 124 0;
#X connect 122 0 117 1;
#X connect 122 0 123 0;
#X connect 123 0 120 1;
#X connect 125 0 127 0;
#X connect 126 0 125 1;
#X connect 127 0 109 0;
#X connect 128 0 117 1;
#X connect 129 0 123 0;
#X connect 130 0 134 0;
#X connect 131 0 134 0;
#X connect 132 0 126 0;
#X connect 135 0 91 0;
#X connect 136 0 113 1;
#X connect 137 0 84 0;
#X connect 139 0 106 1;
#X connect 140 0 159 0;
#X connect 141 0 158 0;
#X connect 142 0 97 1;
#X connect 143 0 115 0;
#X connect 145 0 13 0;
#X connect 146 0 28 0;
#X connect 147 0 29 0;
#X connect 148 0 146 1;
#X connect 148 0 147 1;
#X connect 149 0 148 0;
#X connect 150 0 148 1;
#X connect 151 0 149 0;
#X connect 152 0 151 0;
#X connect 153 0 158 1;
#X connect 153 0 159 1;
#X connect 154 0 153 0;
#X connect 155 0 153 1;
#X connect 156 0 154 0;
#X connect 157 0 156 0;
#X connect 158 0 99 0;
#X connect 159 0 100 0;
