#N canvas -14 47 838 717 10;
#X obj 54 209 adc~;
#X obj 57 377 writesf~ 2;
#X msg 176 320 start;
#X msg 173 349 stop;
#X msg 157 236 open \$1;
#X symbolatom 157 210 10 0 0 0 - - -;
#X obj 156 189 makefilename rec%s.wav;
#X obj 230 224 bng 15 250 50 0 empty empty empty 17 7 0 10 -262144
-1 -1;
#X obj 256 224 bng 15 250 50 0 empty empty empty 17 7 0 10 -262144
-1 -1;
#X obj 217 345 print startpass;
#X obj 219 371 print stoppass;
#X obj 277 59 fiddle~ 1024 1 20 3;
#X floatatom 334 105 5 0 0 0 - - -;
#X obj 277 27 *~;
#X obj 276 -12 adc~;
#X floatatom 392 105 5 0 0 0 - - -;
#X obj 359 133 >;
#X floatatom 358 159 5 0 0 0 - - -;
#X obj 396 248 bng 15 250 50 0 empty empty empty 17 7 0 10 -262144
-1 -1;
#X obj 431 248 bng 15 250 50 0 empty empty empty 17 7 0 10 -262144
-1 -1;
#X obj 358 192 sel 0 1;
#X obj 445 42 OSCroute /filenum /stoprec /startrec;
#X floatatom 509 76 5 0 0 0 - - -;
#X floatatom 536 182 5 0 0 0 - - -;
#X obj 457 95 sel 1;
#X obj 445 15 dumpOSC 13002;
#X obj 504 214 &&;
#X floatatom 504 235 5 0 0 0 - - -;
#X floatatom 415 77 5 0 0 0 - - -;
#X obj 473 305 +;
#X floatatom 472 328 5 0 0 0 - - -;
#X msg 489 280 1;
#X obj 473 350 ==;
#X msg 516 327 1;
#X obj 481 256 sel 1 0;
#X msg 529 287 0;
#X floatatom 473 375 5 0 0 0 - - -;
#X obj 473 404 sel 1;
#X obj 559 348 ==;
#X floatatom 558 323 5 0 0 0 - - -;
#X msg 602 324 0;
#X floatatom 558 374 5 0 0 0 - - -;
#X floatatom 558 465 5 0 0 0 - - -;
#X msg 613 436 1;
#X obj 557 436 +;
#X obj 558 406 sel 1 0;
#X msg 644 435 0;
#X obj 625 486 >;
#X floatatom 627 514 5 0 0 0 - - -;
#X obj 625 540 sel 1;
#X msg 625 567 3;
#X obj 542 498 >;
#X msg 501 465 200;
#X floatatom 539 526 5 0 0 0 - - -;
#X obj 484 500 <;
#X msg 460 468 202;
#X floatatom 483 526 5 0 0 0 - - -;
#X obj 516 553 ==;
#X floatatom 511 583 5 0 0 0 - - -;
#X obj 512 613 sel 1;
#X obj 514 653 print test;
#X msg 663 460 100000;
#X connect 0 0 1 0;
#X connect 0 1 1 1;
#X connect 2 0 1 0;
#X connect 2 0 9 0;
#X connect 3 0 1 0;
#X connect 3 0 10 0;
#X connect 4 0 1 0;
#X connect 5 0 4 0;
#X connect 6 0 5 0;
#X connect 7 0 3 0;
#X connect 8 0 2 0;
#X connect 11 3 12 0;
#X connect 12 0 16 0;
#X connect 13 0 11 0;
#X connect 14 0 13 0;
#X connect 14 0 13 1;
#X connect 15 0 16 1;
#X connect 16 0 17 0;
#X connect 17 0 20 0;
#X connect 17 0 26 0;
#X connect 20 0 18 0;
#X connect 20 1 19 0;
#X connect 21 0 28 0;
#X connect 21 1 22 0;
#X connect 21 2 23 0;
#X connect 22 0 24 0;
#X connect 23 0 26 1;
#X connect 25 0 21 0;
#X connect 26 0 27 0;
#X connect 27 0 34 0;
#X connect 28 0 6 0;
#X connect 29 0 30 0;
#X connect 29 0 33 0;
#X connect 30 0 29 1;
#X connect 30 0 32 0;
#X connect 31 0 29 0;
#X connect 31 0 39 0;
#X connect 32 0 36 0;
#X connect 33 0 32 1;
#X connect 34 0 31 0;
#X connect 34 1 35 0;
#X connect 35 0 30 0;
#X connect 35 0 39 0;
#X connect 36 0 37 0;
#X connect 37 0 2 0;
#X connect 38 0 41 0;
#X connect 39 0 38 0;
#X connect 40 0 38 1;
#X connect 41 0 45 0;
#X connect 42 0 44 1;
#X connect 42 0 47 0;
#X connect 42 0 51 0;
#X connect 42 0 54 0;
#X connect 43 0 44 0;
#X connect 44 0 42 0;
#X connect 44 0 52 0;
#X connect 44 0 55 0;
#X connect 45 0 43 0;
#X connect 45 1 46 0;
#X connect 46 0 42 0;
#X connect 47 0 48 0;
#X connect 48 0 49 0;
#X connect 49 0 50 0;
#X connect 50 0 42 0;
#X connect 51 0 53 0;
#X connect 52 0 51 1;
#X connect 53 0 57 1;
#X connect 54 0 56 0;
#X connect 55 0 54 1;
#X connect 56 0 57 0;
#X connect 57 0 58 0;
#X connect 58 0 59 0;
#X connect 59 0 60 0;
#X connect 59 0 3 0;
#X connect 61 0 47 1;
