#N canvas 444 23 838 717 10;
#X obj 54 209 adc~;
#X obj 57 377 writesf~ 2;
#X msg 176 320 start;
#X msg 176 349 stop;
#X msg 156 218 open \$1;
#X symbolatom 157 209 10 0 0 0 - - -;
#X obj 156 189 makefilename rec%s.wav;
#X obj 230 209 bng 15 250 50 0 empty empty empty 17 7 0 10 -262144
-1 -1;
#X obj 256 209 bng 15 250 50 0 empty empty empty 17 7 0 10 -262144
-1 -1;
#X obj 217 349 print startpass;
#X obj 217 378 print stoppass;
#X obj 276 46 fiddle~ 1024 1 20 3;
#X floatatom 334 105 5 0 0 0 - - -;
#X obj 276 17 *~;
#X obj 276 -12 adc~;
#X floatatom 415 105 5 0 0 0 - - -;
#X obj 359 133 >;
#X floatatom 359 162 5 0 0 0 - - -;
#X obj 396 236 bng 15 250 50 0 empty empty empty 17 7 0 10 -262144
-1 -1;
#X obj 431 236 bng 15 250 50 0 empty empty empty 17 7 0 10 -262144
-1 -1;
#X obj 359 190 sel 0 1;
#X floatatom 509 59 5 0 0 0 - - -;
#X floatatom 536 189 5 0 0 0 - - -;
#X obj 445 27 dumpOSC 13002;
#X obj 504 209 &&;
#X floatatom 415 77 5 0 0 0 - - -;
#X floatatom 504 238 5 0 0 0 - - -;
#X msg 504 320 1;
#X obj 504 349 +;
#X floatatom 504 378 5 0 0 0 - - -;
#X msg 535 320 0;
#X obj 504 406 sel 1;
#X msg 574 320 1;
#X obj 574 349 +;
#X floatatom 574 378 5 0 0 0 - - -;
#X obj 619 377 sel 10000;
#X msg 686 377 0;
#X obj 574 406 ==;
#X floatatom 574 435 5 0 0 0 - - -;
#X obj 574 463 sel 1;
#X obj 555 209 sel 1 0;
#X obj 504 266 sel 1 0;
#X msg 457 349 0;
#X msg 451 523 disconnect;
#X obj 363 627 sendOSC;
#X msg 363 484 connect 127.0.0.1 13000;
#X msg 473 627 send /test;
#X msg 523 549 1;
#X obj 555 238 print boom;
#X obj 673 236 print;
#X obj 445 56 OSCroute /filenum /stoprec /startrec /filereset /startrec2
;
#X msg 619 406 50;
#X connect 0 0 1 0;
#X connect 0 1 1 1;
#X connect 2 0 1 0;
#X connect 2 0 9 0;
#X connect 3 0 1 0;
#X connect 3 0 10 0;
#X connect 4 0 1 0;
#X connect 5 0 4 0;
#X connect 6 0 5 0;
#X connect 8 0 2 0;
#X connect 11 3 12 0;
#X connect 12 0 16 0;
#X connect 13 0 11 0;
#X connect 14 0 13 0;
#X connect 14 0 13 1;
#X connect 15 0 16 1;
#X connect 16 0 17 0;
#X connect 17 0 20 0;
#X connect 17 0 24 0;
#X connect 20 0 18 0;
#X connect 20 1 19 0;
#X connect 21 0 30 0;
#X connect 22 0 24 1;
#X connect 22 0 40 0;
#X connect 22 0 49 0;
#X connect 23 0 50 0;
#X connect 24 0 26 0;
#X connect 25 0 6 0;
#X connect 26 0 41 0;
#X connect 27 0 28 0;
#X connect 27 0 36 0;
#X connect 28 0 29 0;
#X connect 29 0 28 1;
#X connect 29 0 31 0;
#X connect 30 0 29 0;
#X connect 31 0 2 0;
#X connect 31 0 47 0;
#X connect 32 0 33 0;
#X connect 32 0 51 0;
#X connect 33 0 34 0;
#X connect 34 0 33 1;
#X connect 34 0 35 0;
#X connect 34 0 37 0;
#X connect 35 0 36 0;
#X connect 36 0 34 0;
#X connect 37 0 38 0;
#X connect 38 0 39 0;
#X connect 39 0 42 0;
#X connect 39 0 47 0;
#X connect 40 0 48 0;
#X connect 41 0 27 0;
#X connect 41 1 32 0;
#X connect 42 0 29 0;
#X connect 43 0 44 0;
#X connect 45 0 44 0;
#X connect 46 0 44 0;
#X connect 47 0 46 0;
#X connect 50 0 25 0;
#X connect 50 1 21 0;
#X connect 50 2 22 0;
#X connect 50 3 25 0;
#X connect 50 4 22 0;
#X connect 51 0 37 1;
