#N canvas 2 367 552 411 10;
#X obj 54 209 adc~;
#X obj 56 323 writesf~ 2;
#X msg 157 262 start;
#X msg 154 291 stop;
#X msg 157 236 open \$1;
#X symbolatom 157 210 10 0 0 0 - - -;
#X obj 156 189 makefilename rec%s.wav;
#X obj 239 53 dumpOSC 13001;
#X floatatom 240 114 5 0 0 0 - - -;
#X obj 239 80 OSCroute /filenum /stoprec /startrec;
#X floatatom 303 114 5 0 0 0 - - -;
#X floatatom 366 117 5 0 0 0 - - -;
#X obj 299 158 sel 1;
#X obj 363 155 sel 1;
#X obj 308 205 bng 15 250 50 0 empty empty empty 17 7 0 10 -262144
-1 -1;
#X obj 345 207 bng 15 250 50 0 empty empty empty 17 7 0 10 -262144
-1 -1;
#X obj 271 294 print startpass;
#X obj 273 320 print stoppass;
#X obj 71 73 fiddle~;
#X connect 0 0 1 0;
#X connect 0 1 1 1;
#X connect 2 0 1 0;
#X connect 2 0 16 0;
#X connect 3 0 1 0;
#X connect 3 0 17 0;
#X connect 4 0 1 0;
#X connect 5 0 4 0;
#X connect 6 0 5 0;
#X connect 7 0 9 0;
#X connect 8 0 6 0;
#X connect 9 0 8 0;
#X connect 9 1 10 0;
#X connect 9 2 11 0;
#X connect 10 0 12 0;
#X connect 11 0 13 0;
#X connect 12 0 14 0;
#X connect 13 0 15 0;
#X connect 14 0 3 0;
#X connect 15 0 2 0;
